/* XPM */
static char *cad0c763f9d94025f21f10f997213a28[] = {
/* columns rows colors chars-per-pixel */
"128 128 2 1 ",
"  c #2F205C",
". c None",
/* pixels */
"............................       .............................................................................................",
"..........................           ...........................................................................................",
"........................               .........................................................................................",
".......................                 ........................................................................................",
"......................                   .......................................................................................",
".....................                     ......................................................................................",
".....................        .....        ......................................................................................",
"....................       ........        .....................................................................................",
"....................       .........       .....................................................................................",
"....................      ...........      .....................................................................................",
"....................      ...........      .....................................................................................",
"....................      ...........      .....................................................................................",
"....................      ...........      .....................................................................................",
"....................      ...........      .....................................................................................",
"....................      ...........      .....................................................................................",
"....................       .........       .....................................................................................",
".....................       .......       ......................................................................................",
".....................                     ......................................................................................",
"......................                   .......................................................................................",
".......................                 ........................................................................................",
"........................               .........................................................................................",
".........................              .........................................................................................",
"...........................            .........................................................................................",
"....................................    ........................................................................................",
"....................................     .......................................................................................",
".....................................    .......................................................................................",
".....................................     ......................................................................................",
"......................................    ......................................................................................",
"......................................     .....................................................................................",
".......................................    .....................................................................................",
"........................................    ....................................................................................",
"........................................    ....................................................................................",
".........................................    ...................................................................................",
".........................................    ...................................................................................",
"..........................................    ..................................................................................",
"..........................................     .................................................................................",
"...........................................    .................................................................................",
"...........................................     ................................................................................",
"............................................    ................................................................................",
".............................................    ...............................................................................",
".............................................    ...............................................................................",
"..............................................    ..............................................................................",
"..............................................    ..............................................................................",
"...............................................    ..........        ...........................................................",
"...............................................     ....                 .......................................................",
"................................................    ..                      ....................................................",
"................................................                              ..................................................",
".................................................                               ................................................",
"................................................                                 ...............................................",
"...............................................                                    .............................................",
"..............................................                                      ............................................",
".............................................                                        ...........................................",
"............................................                                          ..........................................",
"...........................................                                            .........................................",
"..........................................                  ..........                  ........................................",
".........................................                ...............                ........................................",
".........  ..............................              ...................               .......................................",
"......         .........................              ......................              ......................................",
"....            .......................              ........................             ......................................",
"...               .....................             ..........................             .....................................",
"..                .....................            ............................            .....................................",
".      ......      ...................            .............................            .....................................",
".     .........     ..................            ..............................            ....................................",
"     ..........     .................            ................................           ....................................",
"     ...........    .................            ................................           ....................................",
"    ............     ................           .................................            ...................................",
"    ............                                ..................................           ...................................",
"    ............                                ..................................           ...................................",
"     ...........                               ...................................           ......................      .......",
"     ..........     ..                         ...................................           ....................          .....",
".     ........      ................           ...................................           ..................             ....",
".      ......      .................           ...................................           .................               ...",
"..                ..................           ...................................           .................                ..",
"...              ....................          ...................................                  .........       ....       .",
"....            .....................           ..................................                         .      .......      .",
"......         ......................           ..................................                                ........      ",
".....................................           .................................            ..                  .........      ",
".....................................            ................................           ..........           ..........     ",
".....................................            ................................           ................     ..........     ",
"......................................            ..............................            ................     .........      ",
"......................................            .............................             ................      ........      ",
".......................................            ............................            ..................      ......      .",
".......................................             ..........................             ..................       ...        .",
".......................................              ........................             ....................                ..",
"........................................              ......................              ....................               ...",
".........................................              ...................               ......................             ....",
".........................................                ................               .........................          .....",
"..........................................                  ..........                  ...........................     ........",
"...........................................                                            .........................................",
"............................................                                          ..........................................",
".............................................                                        ...........................................",
"..............................................                                      ............................................",
"...............................................                                    .............................................",
"................................................                                  ..............................................",
"................................................                                ................................................",
"...............................................                               ..................................................",
"..............................................      .                       ....................................................",
".............................................      .....                  ......................................................",
"............................................      ..........          ..........................................................",
"...........................................      ...............................................................................",
"..........................................      ................................................................................",
".........................................     ..................................................................................",
"........................................     ...................................................................................",
".......................................     ....................................................................................",
"......................................     .....................................................................................",
"........................         ....     ......................................................................................",
"......................             .     .......................................................................................",
".....................                   ........................................................................................",
"....................                   .........................................................................................",
"...................                    .........................................................................................",
"...................         ..         .........................................................................................",
"..................       .......        ........................................................................................",
"..................      .........       ........................................................................................",
".................       ..........      ........................................................................................",
".................      ............      .......................................................................................",
".................      ............      .......................................................................................",
".................      ............      .......................................................................................",
".................      ............      .......................................................................................",
".................      ...........       .......................................................................................",
".................       ..........      ........................................................................................",
"..................       ........       ........................................................................................",
"..................        ......       .........................................................................................",
"...................                    .........................................................................................",
"...................                   ..........................................................................................",
"....................                 ...........................................................................................",
"......................              ............................................................................................",
".......................            .............................................................................................",
".........................       ................................................................................................"
};
