/* XPM */
static char *a8ac2e2e59224af5d56fdbb99dabfa32[] = {
/* columns rows colors chars-per-pixel */
"32 32 2 1 ",
"  c #2F205C",
". c None",
/* pixels */
"......    ......................",
".....     ......................",
"..... ...  .....................",
".....  ..  .....................",
".....     ......................",
"......    ......................",
"......... ......................",
".......... .....................",
"..........  ....................",
"........... ....................",
"...........  ...................",
"............       .............",
"............         ...........",
"...........     .     ..........",
".   ......   ......   ..........",
"  .  .....  ........   .........",
" ...    .   ........   .........",
"  .. ..     .........  .....   .",
".   .....   .........     .  .  ",
".........   ........   ...  ... ",
"..........   .......   ....  .  ",
"..........    ....    ......   .",
"...........          ...........",
"............        ............",
"...........  .    ..............",
"..........  ....................",
"......     .....................",
".....     ......................",
"....  ... ......................",
"....  ... ......................",
".....     ......................",
"......   ......................."
};
