/* XPM */
static char *c130791595cd46ab82c567b1c24727ae[] = {
/* columns rows colors chars-per-pixel */
"16 16 2 1 ",
"  c #2F205C",
". c None",
/* pixels */
"...  ...........",
".. .............",
"...  ...........",
"................",
"..... ..........",
"......   .......",
"......     .....",
". ... .... .....",
" . .  ....  ....",
"..... ....  . . ",
".....  ..  ...  ",
"......    ......",
"................",
"...  ...........",
".. . ...........",
"...  ..........."
};
