/* XPM */
static char *f690bc0ccba64cefe4a4421c9bace364[] = {
/* columns rows colors chars-per-pixel */
"64 64 2 1 ",
"  c #2F205C",
". c None",
/* pixels */
".............     ..............................................",
"............        ............................................",
"...........          ...........................................",
"..........    ...    ...........................................",
"..........   .....    ..........................................",
"..........   ......   ..........................................",
"..........   ......   ..........................................",
"..........   .....   ...........................................",
"..........     ..    ...........................................",
"...........         ............................................",
"............        ............................................",
"..............      ............................................",
"..................  ............................................",
"...................  ...........................................",
"...................   ..........................................",
"....................  ..........................................",
"....................   .........................................",
".....................  .........................................",
"......................  ........................................",
"......................  ........................................",
".......................  .......................................",
".......................  .......................................",
"........................  .          ...........................",
"........................               .........................",
"........................                 .......................",
".......................                   ......................",
"......................                     .....................",
".....................        .......        ....................",
"...    .............       ..........        ...................",
"..      ............      .............      ...................",
".   ..   ..........      ..............       ..................",
"   ....   .........      ...............      ..................",
"  ......  .........     .................     ..................",
"  ......                .................     ..................",
"  ......                .................      ..........    ...",
".  ....   ........      .................      ........       ..",
".        .........      .................       .......        .",
"..      ..........      .................                ....   ",
"...................     .................     ...        ....   ",
"...................      ...............      ........   ....   ",
"...................      ...............      ........   ....   ",
"....................      .............      ..........        .",
"....................       ...........       ..........       ..",
".....................        .......        .............    ...",
"......................                     .....................",
".......................                   ......................",
"........................                 .......................",
"........................                ........................",
".......................   .           ..........................",
"......................   .......................................",
".....................  .........................................",
"....................  ..........................................",
".............   ...  ...........................................",
"...........         ............................................",
"..........         .............................................",
".........    ...    ............................................",
".........   .....   ............................................",
"........   ......   ............................................",
"........   ......   ............................................",
".........   .....   ............................................",
".........    ...    ............................................",
"..........         .............................................",
"..........        ..............................................",
"............     ..............................................."
};
